# xmcd
#
# Track frame offsets:
#	150
#	11799
#	25650
#	38154
#	52615
#	65529
#	79601
#	92838
#	106770
#	119886
#	132820
#	144291
#	155716
#	168855
#	180403
#	192556
#	204486
#	217641
#
# Disc length: 3070 seconds
#
# Revision: 2
# Processed by: cddbd v1.4PL0 Copyright (c) Steve Scherf et al.
# Submitted via: audiograbber 1.81.03
#
DISCID=e80bfc12
DTITLE=Various Artist - Guitar In My Hand - CD 3
DYEAR=2001
DGENRE=Blues
TTITLE0=Li'l Son Jackson - Ticket Agent Blues
TTITLE1=Floyd Dixon - You Need Me Now
TTITLE2=Sunnyland Slim - She Ain't Nowhere
TTITLE3=Sonny Terry - Hot Headed Woman
TTITLE4=Joe Turner - That's What Really Hurts
TTITLE5=Amos Milburn - Mean Woman
TTITLE6=Floyd Dixon - Four Years
TTITLE7=Joe Turner - New Ooh Wee Baby Blues
TTITLE8=John Lee Hooker - Let Your Daddy Ride
TTITLE9=Jay McShann - Pic's Boogie
TTITLE10=Julia Lee and Her Boy Friends - Do You Want It
TTITLE11=Tommy Douglas - Douglas Boogie
TTITLE12=Floyd Dixon - Pleasure Days
TTITLE13=Clarence 'Gatemouth' Brown - After Sunset
TTITLE14=Amos Milburn - Cinch Blues
TTITLE15=Bus Moten and His Men - Sugar Daddy Blues
TTITLE16=St.Louis Jimmy - Florida Hurricane
TTITLE17=John Lee Hooker - Turnin' Gray Blues
EXTD=
EXTT0=
EXTT1=
EXTT2=
EXTT3=
EXTT4=
EXTT5=
EXTT6=
EXTT7=
EXTT8=
EXTT9=
EXTT10=
EXTT11=
EXTT12=
EXTT13=
EXTT14=
EXTT15=
EXTT16=
EXTT17=
PLAYORDER=
